<mxfile host="Electron" modified="2025-01-21T04:07:32.422Z" agent="Mozilla/5.0 (Windows NT 10.0; Win64; x64) AppleWebKit/537.36 (KHTML, like Gecko) draw.io/22.0.3 Chrome/114.0.5735.289 Electron/25.8.4 Safari/537.36" etag="EwPWuOl9cdsO9heZIa-F" version="22.0.3" type="device">
  <diagram name="Page-1" id="ksKrZojPF8JaQORLFna3">
    <mxGraphModel dx="678" dy="471" grid="0" gridSize="10" guides="1" tooltips="1" connect="1" arrows="1" fold="1" page="1" pageScale="1" pageWidth="850" pageHeight="1100" math="0" shadow="0">
      <root>
        <mxCell id="0" />
        <mxCell id="1" parent="0" />
        <mxCell id="OiWcpk03k6W9Mtf3s9f9-1" value="User&amp;nbsp;" style="shape=umlActor;verticalLabelPosition=bottom;verticalAlign=top;html=1;outlineConnect=0;" vertex="1" parent="1">
          <mxGeometry x="120" y="120" width="40" height="80" as="geometry" />
        </mxCell>
        <mxCell id="OiWcpk03k6W9Mtf3s9f9-2" value="&lt;span style=&quot;font-size: 10px;&quot;&gt;Auth&lt;/span&gt;" style="ellipse;whiteSpace=wrap;html=1;" vertex="1" parent="1">
          <mxGeometry x="280" y="70" width="90" height="30" as="geometry" />
        </mxCell>
        <mxCell id="OiWcpk03k6W9Mtf3s9f9-3" value="&lt;font style=&quot;font-size: 10px;&quot;&gt;Objek wisata&lt;/font&gt;" style="ellipse;whiteSpace=wrap;html=1;" vertex="1" parent="1">
          <mxGeometry x="270" y="145" width="90" height="30" as="geometry" />
        </mxCell>
        <mxCell id="OiWcpk03k6W9Mtf3s9f9-4" value="&lt;font style=&quot;font-size: 10px;&quot;&gt;Jadwal&lt;/font&gt;" style="ellipse;whiteSpace=wrap;html=1;" vertex="1" parent="1">
          <mxGeometry x="270" y="230" width="90" height="30" as="geometry" />
        </mxCell>
        <mxCell id="OiWcpk03k6W9Mtf3s9f9-5" value="&lt;font style=&quot;font-size: 10px;&quot;&gt;Regist&lt;/font&gt;" style="ellipse;whiteSpace=wrap;html=1;" vertex="1" parent="1">
          <mxGeometry x="440" y="30" width="90" height="30" as="geometry" />
        </mxCell>
        <mxCell id="OiWcpk03k6W9Mtf3s9f9-6" value="&lt;font style=&quot;font-size: 10px;&quot;&gt;Login&lt;/font&gt;" style="ellipse;whiteSpace=wrap;html=1;" vertex="1" parent="1">
          <mxGeometry x="445" y="90" width="85" height="30" as="geometry" />
        </mxCell>
        <mxCell id="OiWcpk03k6W9Mtf3s9f9-7" value="&lt;font style=&quot;font-size: 10px;&quot;&gt;Info sewa&lt;/font&gt;" style="ellipse;whiteSpace=wrap;html=1;" vertex="1" parent="1">
          <mxGeometry x="445" y="140" width="85" height="30" as="geometry" />
        </mxCell>
        <mxCell id="OiWcpk03k6W9Mtf3s9f9-8" value="&lt;font style=&quot;font-size: 9px;&quot;&gt;Form pengaju&lt;/font&gt;&lt;font style=&quot;font-size: 8px;&quot;&gt;an&lt;/font&gt;" style="ellipse;whiteSpace=wrap;html=1;" vertex="1" parent="1">
          <mxGeometry x="445" y="190" width="85" height="30" as="geometry" />
        </mxCell>
        <mxCell id="OiWcpk03k6W9Mtf3s9f9-9" value="&lt;font style=&quot;font-size: 9px;&quot;&gt;Jadwal booking&lt;/font&gt;" style="ellipse;whiteSpace=wrap;html=1;" vertex="1" parent="1">
          <mxGeometry x="442.5" y="230" width="85" height="30" as="geometry" />
        </mxCell>
        <mxCell id="OiWcpk03k6W9Mtf3s9f9-10" value="&lt;font style=&quot;font-size: 9px;&quot;&gt;Rules sewa&lt;/font&gt;" style="ellipse;whiteSpace=wrap;html=1;" vertex="1" parent="1">
          <mxGeometry x="445" y="280" width="85" height="30" as="geometry" />
        </mxCell>
        <mxCell id="OiWcpk03k6W9Mtf3s9f9-11" value="" style="endArrow=none;html=1;rounded=0;exitX=1;exitY=0.3333333333333333;exitDx=0;exitDy=0;exitPerimeter=0;entryX=0.014;entryY=0.687;entryDx=0;entryDy=0;entryPerimeter=0;" edge="1" parent="1" source="OiWcpk03k6W9Mtf3s9f9-1" target="OiWcpk03k6W9Mtf3s9f9-2">
          <mxGeometry width="50" height="50" relative="1" as="geometry">
            <mxPoint x="280" y="140" as="sourcePoint" />
            <mxPoint x="330" y="90" as="targetPoint" />
          </mxGeometry>
        </mxCell>
        <mxCell id="OiWcpk03k6W9Mtf3s9f9-12" value="" style="endArrow=none;html=1;rounded=0;exitX=1;exitY=0.3333333333333333;exitDx=0;exitDy=0;exitPerimeter=0;entryX=0;entryY=0.333;entryDx=0;entryDy=0;entryPerimeter=0;" edge="1" parent="1" source="OiWcpk03k6W9Mtf3s9f9-1" target="OiWcpk03k6W9Mtf3s9f9-3">
          <mxGeometry width="50" height="50" relative="1" as="geometry">
            <mxPoint x="280" y="140" as="sourcePoint" />
            <mxPoint x="330" y="90" as="targetPoint" />
          </mxGeometry>
        </mxCell>
        <mxCell id="OiWcpk03k6W9Mtf3s9f9-13" value="" style="endArrow=none;html=1;rounded=0;exitX=1;exitY=0.3333333333333333;exitDx=0;exitDy=0;exitPerimeter=0;entryX=0.069;entryY=0.321;entryDx=0;entryDy=0;entryPerimeter=0;" edge="1" parent="1" source="OiWcpk03k6W9Mtf3s9f9-1" target="OiWcpk03k6W9Mtf3s9f9-4">
          <mxGeometry width="50" height="50" relative="1" as="geometry">
            <mxPoint x="280" y="140" as="sourcePoint" />
            <mxPoint x="330" y="90" as="targetPoint" />
          </mxGeometry>
        </mxCell>
        <mxCell id="OiWcpk03k6W9Mtf3s9f9-14" value="" style="endArrow=none;dashed=1;html=1;rounded=0;entryX=0;entryY=0.5;entryDx=0;entryDy=0;exitX=0.957;exitY=0.313;exitDx=0;exitDy=0;exitPerimeter=0;" edge="1" parent="1" source="OiWcpk03k6W9Mtf3s9f9-2" target="OiWcpk03k6W9Mtf3s9f9-5">
          <mxGeometry width="50" height="50" relative="1" as="geometry">
            <mxPoint x="280" y="140" as="sourcePoint" />
            <mxPoint x="330" y="90" as="targetPoint" />
          </mxGeometry>
        </mxCell>
        <mxCell id="OiWcpk03k6W9Mtf3s9f9-15" value="" style="endArrow=none;dashed=1;html=1;rounded=0;entryX=0;entryY=0.5;entryDx=0;entryDy=0;exitX=1;exitY=0.5;exitDx=0;exitDy=0;" edge="1" parent="1" source="OiWcpk03k6W9Mtf3s9f9-2" target="OiWcpk03k6W9Mtf3s9f9-6">
          <mxGeometry width="50" height="50" relative="1" as="geometry">
            <mxPoint x="376" y="89" as="sourcePoint" />
            <mxPoint x="450" y="55" as="targetPoint" />
          </mxGeometry>
        </mxCell>
        <mxCell id="OiWcpk03k6W9Mtf3s9f9-16" value="" style="endArrow=none;dashed=1;html=1;rounded=0;entryX=0.012;entryY=0.327;entryDx=0;entryDy=0;exitX=1;exitY=0.5;exitDx=0;exitDy=0;entryPerimeter=0;" edge="1" parent="1" source="OiWcpk03k6W9Mtf3s9f9-3" target="OiWcpk03k6W9Mtf3s9f9-7">
          <mxGeometry width="50" height="50" relative="1" as="geometry">
            <mxPoint x="386" y="99" as="sourcePoint" />
            <mxPoint x="460" y="65" as="targetPoint" />
          </mxGeometry>
        </mxCell>
        <mxCell id="OiWcpk03k6W9Mtf3s9f9-17" value="" style="endArrow=none;dashed=1;html=1;rounded=0;entryX=0;entryY=0.5;entryDx=0;entryDy=0;exitX=1;exitY=0.5;exitDx=0;exitDy=0;" edge="1" parent="1" source="OiWcpk03k6W9Mtf3s9f9-3" target="OiWcpk03k6W9Mtf3s9f9-8">
          <mxGeometry width="50" height="50" relative="1" as="geometry">
            <mxPoint x="370" y="170" as="sourcePoint" />
            <mxPoint x="456" y="160" as="targetPoint" />
          </mxGeometry>
        </mxCell>
        <mxCell id="OiWcpk03k6W9Mtf3s9f9-18" value="" style="endArrow=none;dashed=1;html=1;rounded=0;entryX=0;entryY=0.5;entryDx=0;entryDy=0;exitX=0.98;exitY=0.727;exitDx=0;exitDy=0;exitPerimeter=0;" edge="1" parent="1" source="OiWcpk03k6W9Mtf3s9f9-4" target="OiWcpk03k6W9Mtf3s9f9-9">
          <mxGeometry width="50" height="50" relative="1" as="geometry">
            <mxPoint x="380" y="180" as="sourcePoint" />
            <mxPoint x="466" y="170" as="targetPoint" />
          </mxGeometry>
        </mxCell>
        <mxCell id="OiWcpk03k6W9Mtf3s9f9-19" value="" style="endArrow=none;dashed=1;html=1;rounded=0;entryX=0;entryY=0.5;entryDx=0;entryDy=0;exitX=0.959;exitY=0.759;exitDx=0;exitDy=0;exitPerimeter=0;" edge="1" parent="1" source="OiWcpk03k6W9Mtf3s9f9-4" target="OiWcpk03k6W9Mtf3s9f9-10">
          <mxGeometry width="50" height="50" relative="1" as="geometry">
            <mxPoint x="390" y="190" as="sourcePoint" />
            <mxPoint x="476" y="180" as="targetPoint" />
          </mxGeometry>
        </mxCell>
        <mxCell id="OiWcpk03k6W9Mtf3s9f9-21" value="Use case User" style="text;html=1;strokeColor=none;fillColor=none;align=center;verticalAlign=middle;whiteSpace=wrap;rounded=0;" vertex="1" parent="1">
          <mxGeometry x="92" y="10" width="96" height="30" as="geometry" />
        </mxCell>
      </root>
    </mxGraphModel>
  </diagram>
</mxfile>
